<?xml version="1.0" encoding="utf-8" ?><svg xmlns="http://www.w3.org/2000/svg" xmlns:xlink="http://www.w3.org/1999/xlink" width="1024" height="1024" viewBox="0 0 1024 1024"><defs><linearGradient id="gradient_0" gradientUnits="userSpaceOnUse" x1="415.48389" y1="735.06183" x2="799.16541" y2="349.91113"><stop offset="0" stop-color="#0C0408"/><stop offset="1" stop-color="#0B3966"/></linearGradient></defs><path fill="url(#gradient_0)" d="M615.907 174.735C624.051 180.562 633.246 186.482 640.872 192.971C643.24 194.987 642.968 199.79 642.852 202.717L642.917 242.607C642.918 247.598 644.125 262.443 640.62 265.491C635.125 270.272 627.782 274.841 621.703 279.152C604.323 291.48 586.857 303.685 569.305 315.767C563.998 319.43 557.563 323.444 552.823 327.864C551.387 329.202 551.789 334.416 551.603 336.272C551.557 369.02 551.569 401.796 551.533 434.547L551.564 471.805C551.582 476.955 551.311 484.985 551.69 489.87C559.666 485.1 569.861 477.615 577.627 472.204L617.087 444.624C623.341 440.169 647.656 424.364 651.104 419.814L651.567 419.214C652.112 404.819 650.687 389.963 652.073 375.721C652.537 370.955 666.036 362.927 670.228 360.065L694.409 343.401C700.614 339.103 707.669 336.177 707.805 327.864C708.253 300.384 707.023 272.656 707.638 245.201C707.388 240.382 707.611 233.098 707.597 228.095C707.507 218.494 707.486 208.892 707.536 199.29C712.616 201.96 729.339 214.378 734.483 218.362C742.528 223.973 751.814 230.18 759.611 235.971C762.683 237.848 786.734 254.105 786.787 256.969C787.471 293.775 786.718 330.763 786.997 367.612C787.014 369.835 786.741 372.579 786.216 374.274C782.71 378.427 776.989 381.949 772.447 385.111L748.172 401.887C742.101 406.062 733.254 411.58 728.496 416.854L728.728 498.318C728.716 507.325 728.037 531.633 729.282 539.615C733.676 543.85 741.982 549.346 747.166 552.959L774.727 572.156C778.706 574.93 786.564 580.025 789.477 583.389L790.033 584.026C791.089 595.887 790.371 618.162 790.325 630.538C796.633 638.613 813.602 646.609 821.565 653.585C822.793 654.661 823.781 655.559 824.03 657.369C824.843 665.052 824.526 674.175 824.51 681.927L824.412 728.936L824.49 772.758C819.018 769.197 812.973 764.475 807.578 760.566C804.759 758.524 797.456 753.86 795.29 752.017C788.105 746.703 780.815 741.532 773.426 736.505C767.167 732.383 753.316 721.672 747.835 718.802C747.365 709.619 747.765 700.662 747.537 691.544C738.977 682.352 718.705 673.725 710.031 664.099C708.485 662.385 708.662 652.986 708.665 650.459L708.75 620.476C704.982 616.696 695.987 610.852 691.395 607.695L669.095 592.218C663.513 588.424 655.817 583.843 651.942 578.561C651.187 572.054 651.482 561.017 651.487 554.093L651.553 512.613L625.486 530.843C618.819 535.422 605.084 544.078 600.339 549.543C599.751 555.336 599.963 562.862 599.962 568.827L599.968 598.787C599.809 628.297 599.825 657.807 600.014 687.316C600.117 687.499 600.217 687.683 600.322 687.864C603.889 694.032 626.11 707.841 633.098 712.646C635.693 714.431 640.112 716.813 641.826 719.506C643.051 721.432 643.261 726.018 643.36 728.333C643.793 738.415 644.093 828.593 642.927 832.269C641.714 836.095 636.466 838.658 633.298 840.684C629.079 843.979 620.566 849.859 616.006 852.811C608.623 858.578 600.207 863.651 592.678 869.446C588.143 873.66 571.763 884.252 565.611 888.663C565.136 872.615 566.999 763.315 564.788 758.466C561.561 751.392 529.609 736.174 524.109 728.196C523.942 727.954 523.789 727.702 523.629 727.455L523.535 699.548L523.469 439.616L523.576 361.187C523.59 346.119 523.352 330.227 523.748 315.209C526.758 311.854 538.639 304.1 542.866 301.191C558.542 290.451 574.128 279.58 589.621 268.578C596.18 263.956 611.306 254.738 615.537 249.033C615.989 241.109 615.842 231.205 615.908 223.18C615.687 221.241 615.738 218.625 615.771 216.622C616.002 202.752 615.281 188.574 615.907 174.735Z"/><defs><linearGradient id="gradient_1" gradientUnits="userSpaceOnUse" x1="700.58752" y1="482.2757" x2="824.26477" y2="482.91916"><stop offset="0" stop-color="#082F4F"/><stop offset="1" stop-color="#213F85"/></linearGradient></defs><path fill="url(#gradient_1)" d="M759.611 235.971C762.683 237.848 786.734 254.105 786.787 256.969C787.471 293.775 786.718 330.763 786.997 367.612C787.014 369.835 786.741 372.579 786.216 374.274C782.71 378.427 776.989 381.949 772.447 385.111L748.172 401.887C742.101 406.062 733.254 411.58 728.496 416.854L728.728 498.318C728.716 507.325 728.037 531.633 729.282 539.615C733.676 543.85 741.982 549.346 747.166 552.959L774.727 572.156C778.706 574.93 786.564 580.025 789.477 583.389L790.033 584.026C791.089 595.887 790.371 618.162 790.325 630.538C796.633 638.613 813.602 646.609 821.565 653.585C822.793 654.661 823.781 655.559 824.03 657.369C824.843 665.052 824.526 674.175 824.51 681.927L824.412 728.936L824.49 772.758C819.018 769.197 812.973 764.475 807.578 760.566C804.759 758.524 797.456 753.86 795.29 752.017C788.105 746.703 780.815 741.532 773.426 736.505C774.3 720.489 774.125 693.87 773.406 677.885C768.666 672.12 743.904 656.317 736.027 650.5C735.254 636.831 735.65 618.639 735.866 604.76C733.599 603.559 722.73 596.73 721.78 595.276C719.44 593.971 706.127 584.797 704.468 583.171C702.198 582.348 681.448 567.43 679.515 565.343C678.821 532.24 679.303 496.476 679.528 463.262L700.506 448.63L700.515 420.364C700.433 414.285 700.388 408.205 700.381 402.125C703.82 398.677 712.247 393.225 716.587 390.198L739.483 374.118C745.894 369.697 753.916 364.445 759.854 359.545L759.681 307.796C759.826 304.19 759.855 300.493 759.84 296.882C759.755 276.66 760.555 256.159 759.611 235.971Z"/><path fill="#5327B1" d="M735.866 604.76C737.44 605.555 737.875 605.87 739.31 606.867L753.199 616.559C754.003 617.13 754.107 617.258 754.988 617.717C757.15 619.288 759.459 621.027 761.649 622.533C761.627 628.7 761.499 635.173 761.587 641.313C768.84 648.996 787.737 658.591 795.545 666.811C795.736 681.705 795.202 696.974 795.578 711.714C795.371 724.429 795.98 739.774 795.29 752.017C788.105 746.703 780.815 741.532 773.426 736.505C774.3 720.489 774.125 693.87 773.406 677.885C768.666 672.12 743.904 656.317 736.027 650.5C735.254 636.831 735.65 618.639 735.866 604.76Z"/><defs><linearGradient id="gradient_2" gradientUnits="userSpaceOnUse" x1="732.11389" y1="519.53204" x2="678.45673" y2="517.99854"><stop offset="0" stop-color="#05A4D8"/><stop offset="1" stop-color="#04D8FF"/></linearGradient></defs><path fill="url(#gradient_2)" d="M700.506 448.63L700.517 517.492C700.496 527.855 699.911 543.658 700.55 553.398C707.68 559.829 722.465 567.704 728.975 573.644L729.23 574.061C729.591 574.642 730.443 575.761 730.661 576.252C729.968 577.467 713.739 585.704 711.156 587.018C709.174 585.479 707.48 584 705.05 583.335L704.468 583.171C702.198 582.348 681.448 567.43 679.515 565.343C678.821 532.24 679.303 496.476 679.528 463.262L700.506 448.63Z"/><path fill="#0F3D6F" d="M796.233 692.7C802.608 702.279 815.927 720.911 823.14 729.79C824.206 729.466 823.796 729.77 824.412 728.936L824.49 772.758C819.018 769.197 812.973 764.475 807.578 760.566C804.759 758.524 797.456 753.86 795.29 752.017C795.98 739.774 795.371 724.429 795.578 711.714C796.373 705.493 795.681 698.941 796.233 692.7Z"/><path fill="#086498" d="M728.975 573.644C732.133 575.588 738.238 580.017 741.233 582.327C745.349 584.421 758.252 594.032 761.459 597.269C761.38 603.431 760.562 615.65 761.39 620.805L761.492 621.408C759.286 619.787 757.523 617.772 754.988 617.717C754.107 617.258 754.003 617.13 753.199 616.559L739.31 606.867C737.875 605.87 737.44 605.555 735.866 604.76C733.599 603.559 722.73 596.73 721.78 595.276C719.44 593.971 706.127 584.797 704.468 583.171L705.05 583.335C707.48 584 709.174 585.479 711.156 587.018C713.739 585.704 729.968 577.467 730.661 576.252C730.443 575.761 729.591 574.642 729.23 574.061L728.975 573.644Z"/><path fill="#0581C2" d="M728.975 573.644C732.133 575.588 738.238 580.017 741.233 582.327C739.585 583.297 736.512 579.297 736.018 579.603C732.345 581.878 731.152 584.626 726.274 585.827C725.931 585.911 717.395 590.738 717.151 591.045C716.987 592.147 721.723 592.698 721.78 595.276C719.44 593.971 706.127 584.797 704.468 583.171L705.05 583.335C707.48 584 709.174 585.479 711.156 587.018C713.739 585.704 729.968 577.467 730.661 576.252C730.443 575.761 729.591 574.642 729.23 574.061L728.975 573.644Z"/><defs><linearGradient id="gradient_3" gradientUnits="userSpaceOnUse" x1="553.32715" y1="702.39288" x2="747.58264" y2="606.59021"><stop offset="0" stop-color="#0A0406"/><stop offset="1" stop-color="#0F3058"/></linearGradient></defs><path fill="url(#gradient_3)" d="M679.528 463.262C679.303 496.476 678.821 532.24 679.515 565.343C681.448 567.43 702.198 582.348 704.468 583.171C706.127 584.797 719.44 593.971 721.78 595.276C722.73 596.73 733.599 603.559 735.866 604.76C735.65 618.639 735.254 636.831 736.027 650.5C743.904 656.317 768.666 672.12 773.406 677.885C774.125 693.87 774.3 720.489 773.426 736.505C767.167 732.383 753.316 721.672 747.835 718.802C747.365 709.619 747.765 700.662 747.537 691.544C738.977 682.352 718.705 673.725 710.031 664.099C708.485 662.385 708.662 652.986 708.665 650.459L708.75 620.476C704.982 616.696 695.987 610.852 691.395 607.695L669.095 592.218C663.513 588.424 655.817 583.843 651.942 578.561C651.187 572.054 651.482 561.017 651.487 554.093L651.553 512.613L625.486 530.843C618.819 535.422 605.084 544.078 600.339 549.543C599.751 555.336 599.963 562.862 599.962 568.827L599.968 598.787C599.809 628.297 599.825 657.807 600.014 687.316C600.117 687.499 600.217 687.683 600.322 687.864C603.889 694.032 626.11 707.841 633.098 712.646C635.693 714.431 640.112 716.813 641.826 719.506C643.051 721.432 643.261 726.018 643.36 728.333C643.793 738.415 644.093 828.593 642.927 832.269C641.714 836.095 636.466 838.658 633.298 840.684C629.079 843.979 620.566 849.859 616.006 852.811C608.623 858.578 600.207 863.651 592.678 869.446C592.027 865.035 592.322 848.08 592.362 842.855C592.486 826.495 592.005 809.44 592.431 793.148C599.97 783.537 607.886 770.914 616.019 762.103L615.967 732.627C611.92 728.781 606.328 725.544 601.743 722.195C592.15 715.186 581.206 708.223 572.072 700.729C571.948 674.24 572.054 647.75 572.39 621.262C572.531 592.701 572.473 564.139 572.217 535.579C576.165 531.112 586.964 524.713 592.582 520.921C606.711 511.31 620.924 501.823 635.221 492.462L663.198 473.889C668.193 470.567 674.472 466.152 679.528 463.262Z"/><path fill="#301165" d="M616.019 762.103L615.977 831.368C616.21 831.176 616.456 830.927 616.736 830.835L616.735 830.843L617.1 831.182C617.384 834.331 618.23 832.927 619.978 834.227C623.168 836.598 622.238 837.157 626.371 838.47C628.435 839.125 631.022 840.036 633.298 840.684C629.079 843.979 620.566 849.859 616.006 852.811C608.623 858.578 600.207 863.651 592.678 869.446C592.027 865.035 592.322 848.08 592.362 842.855C592.486 826.495 592.005 809.44 592.431 793.148C599.97 783.537 607.886 770.914 616.019 762.103Z"/><path fill="#030304" d="M615.977 831.368C616.21 831.176 616.456 830.927 616.736 830.835L616.735 830.843L617.1 831.182C617.384 834.331 618.23 832.927 619.978 834.227C623.168 836.598 622.238 837.157 626.371 838.47C628.435 839.125 631.022 840.036 633.298 840.684C629.079 843.979 620.566 849.859 616.006 852.811C615.875 845.664 615.865 838.515 615.977 831.368Z"/><path fill="#692FDC" d="M679.025 435.918C686.227 430.804 693.231 425.292 700.515 420.364L700.506 448.63L679.528 463.262C674.472 466.152 668.193 470.567 663.198 473.889L635.221 492.462C620.924 501.823 606.711 511.31 592.582 520.921C586.964 524.713 576.165 531.112 572.217 535.579C572.473 564.139 572.531 592.701 572.39 621.262C571.416 623.752 553.503 645.536 550.646 649.308L550.618 579.836C550.626 569.415 551.1 553.36 550.408 543.347C550.099 537.876 550.44 529.069 550.481 523.348C555.56 517.7 578.858 503.168 586.976 497.694L679.025 435.918Z"/><path fill="#5327B1" d="M550.32 713.04C549.835 704.714 550.266 692.395 550.265 683.794L550.071 631.543L550.098 575.812C550.113 565.848 549.8 553.066 550.408 543.347C551.1 553.36 550.626 569.415 550.618 579.836L550.646 649.308C553.503 645.536 571.416 623.752 572.39 621.262C572.054 647.75 571.948 674.24 572.072 700.729C581.206 708.223 592.15 715.186 601.743 722.195C606.328 725.544 611.92 728.781 615.967 732.627L616.019 762.103C607.886 770.914 599.97 783.537 592.431 793.148L592.396 743.642C588.648 739.696 582.005 735.765 577.422 732.582C568.319 726.259 558.765 720.256 550.32 713.04Z"/><path fill="#04C7FD" d="M734.944 340.478C738.714 339.492 753.981 312.053 759.681 307.796L759.854 359.545C753.916 364.445 745.894 369.697 739.483 374.118L716.587 390.198C712.247 393.225 703.82 398.677 700.381 402.125C700.388 408.205 700.433 414.285 700.515 420.364C693.231 425.292 686.227 430.804 679.025 435.918C678.968 427.634 677.904 393.595 679.901 388.171C681.879 382.795 726.627 356.355 734.233 347.989C734.384 347.823 734.531 347.653 734.679 347.485C734.808 345.151 734.896 342.815 734.944 340.478Z"/><path fill="#1DF0FC" d="M734.483 218.362C742.528 223.973 751.814 230.18 759.611 235.971C760.555 256.159 759.755 276.66 759.84 296.882C759.855 300.493 759.826 304.19 759.681 307.796C753.981 312.053 738.714 339.492 734.944 340.478C733.997 316.597 735.011 289.946 734.475 265.673C734.805 263.253 734.592 253.42 734.584 250.349L734.483 218.362Z"/><path fill="#0F3D6F" d="M707.536 199.29C712.616 201.96 729.339 214.378 734.483 218.362L734.584 250.349C734.592 253.42 734.805 263.253 734.475 265.673C732.85 269.733 734.34 280.087 733.784 285.614C731.162 282.296 720.412 283.142 716.078 281.779C713.746 281.046 711.923 279.492 710.077 278.088L709.195 278.382L708.778 279.741C708.224 271.695 709.323 251.96 707.638 245.201C707.388 240.382 707.611 233.098 707.597 228.095C707.507 218.494 707.486 208.892 707.536 199.29Z"/><path fill="#0F3D6F" d="M615.907 174.735C624.051 180.562 633.246 186.482 640.872 192.971C643.24 194.987 642.968 199.79 642.852 202.717C641.598 208.487 642.805 234.501 641.288 237.151C632.558 232.287 627.177 230.715 617.073 233.266C617.288 229.09 617.729 226.982 615.908 223.18C615.687 221.241 615.738 218.625 615.771 216.622C616.002 202.752 615.281 188.574 615.907 174.735Z"/><defs><linearGradient id="gradient_4" gradientUnits="userSpaceOnUse" x1="595.14349" y1="673.34473" x2="264.1463" y2="459.37827"><stop offset="0" stop-color="#0B0204"/><stop offset="1" stop-color="#0B3B69"/></linearGradient></defs><path fill="url(#gradient_4)" d="M382.593 228.16C382.469 218.212 382.041 207.58 382.658 197.69C383.005 192.138 391.214 187.611 395.412 184.627C400.549 180.976 406.026 177.262 411.292 173.627L411.209 220.032C411.21 224.128 411.427 238.813 410.964 242.162L411.16 249.831C415.255 255.827 429.148 264.248 435.78 268.733C447.318 276.535 458.957 284.592 470.241 292.816C478.369 298.74 494.057 308.363 500.555 315.244L500.745 600.59C500.786 640.598 499.956 682.282 500.762 722.087C500.772 724.49 500.693 725.795 500.448 728.148C494.863 733.288 488.247 736.924 482.3 741.478C475.427 746.74 465.768 751.968 460.02 758.236C458.84 797.741 460.365 837.571 459.668 877.109C459.6 880.95 459.689 884.864 459.519 888.695C451.045 883.17 441.611 875.809 433.034 869.913C430.273 868.109 427.101 865.68 424.39 863.706L409.466 852.913C405.58 850.106 401.492 847.668 397.676 844.779C393.932 842.238 382.68 835.954 382.379 831.634C381.903 824.778 382.024 817.254 382.017 810.342L381.995 774.247L382 742.018C382.004 735.887 381.859 729.411 382.289 723.313C382.477 720.637 382.562 720.193 384.339 718.304C387.068 715.404 391.78 713.058 394.696 710.789C402.287 704.883 420.094 694.359 425.485 687.807L425.936 687.248L425.863 595.111L425.901 569.975C425.905 566.36 426.402 550.278 423.945 548.417C407.706 536.119 390.488 524.702 373.73 513.036C374.085 518.717 374.945 577.35 372.363 579.608C357.66 592.468 333.241 605.915 318.205 619.214C313.382 623.48 319.565 656.955 314.878 663.695C307.258 672.618 285.527 681.738 277.613 691.293C277.2 699.344 277.589 709.81 277.376 718.264C269.452 724.36 259.263 731.763 251.016 737.207L250.475 737.634C248.562 738.986 240.697 744.683 239.048 745.229C237.381 746.768 232.709 750.197 230.752 751.555C222.604 756.9 209.184 766.189 201.821 772.202C201.797 758.823 201.485 744.023 201.883 730.748C200.905 709.085 202.423 686.243 201.779 664.491C201.729 662.808 202.199 655.915 203.215 654.942C212.325 646.222 225.518 640.329 234.448 631.485L234.957 630.977C236.032 615.774 234.058 599.756 235.81 584.672C236.188 581.422 250.244 572.57 253.423 570.344L281.764 550.49C285.954 547.57 294.32 542.461 297.047 538.454C297.575 532.468 297.27 523.564 297.229 517.302L297.07 482.322L297.091 440.998C297.087 433.933 297.305 423.208 296.673 416.379C293.323 412.645 283.723 406.412 279.079 403.185C270.496 397.137 261.871 391.149 253.204 385.221C236.37 373.66 238.367 376.798 238.458 356.592L238.504 332.757C238.458 307.997 237.925 281.474 238.567 256.877C241.579 253.065 261.269 238.988 266.131 235.852L266.423 299.619C266.457 319.328 266.182 339.625 266.426 359.273C270.403 363.672 279.955 369.863 285.198 373.5C294.114 379.636 302.993 385.826 311.834 392.071C316.018 395.051 321.557 398.733 324.877 402.557C324.928 408.534 324.945 414.511 324.929 420.488L344.765 434.677L345.475 434.185C346.21 432.77 346.03 430.373 346.053 428.683C345.567 415.487 346.579 400.722 345.777 387.768C343.285 385.248 341.77 384.37 339.451 382.239C338.144 381.731 336.236 380.139 335.03 379.223C338.796 379.581 336.602 380.756 339.244 380.672C338.495 378.566 336.418 378.857 335.699 376.803C337.297 375.469 337.956 377.065 341.045 376.066C342.637 373.614 345.058 370.274 346.979 368.104C356.504 357.348 348.396 359.583 346.559 354.673C347.559 355.169 352.584 358.502 353.4 359.282C358.108 363.783 373.223 369.802 373.631 376.647C374.495 391.149 373.446 405.549 373.994 419.954C377.218 422.983 385.45 428.692 389.269 431.371C401.271 439.789 413.429 448.025 425.456 456.439L454.851 477.109C460.204 480.901 467.844 486.702 473.459 489.732C474.915 470.397 473.884 447.401 473.954 427.713C474.07 395.067 474.457 361.929 473.426 329.328C467.9 323.947 453.097 313.972 446.308 309.267C431.561 299.174 416.912 288.938 402.363 278.562C398.485 275.792 383.218 266.339 382.913 262.375C382.069 251.44 382.404 239.219 382.593 228.16Z"/><defs><linearGradient id="gradient_5" gradientUnits="userSpaceOnUse" x1="327.18909" y1="487.87558" x2="212.66635" y2="481.28705"><stop offset="0" stop-color="#053457"/><stop offset="1" stop-color="#1F438C"/></linearGradient></defs><path fill="url(#gradient_5)" d="M266.131 235.852L266.423 299.619C266.457 319.328 266.182 339.625 266.426 359.273C270.403 363.672 279.955 369.863 285.198 373.5C294.114 379.636 302.993 385.826 311.834 392.071C316.018 395.051 321.557 398.733 324.877 402.557C324.928 408.534 324.945 414.511 324.929 420.488C324.206 423.829 324.106 444.946 324.795 448.368C331.918 453.879 339.404 458.15 346.301 463.341C345.469 487.134 346.394 512.002 346.148 535.846C346.054 544.975 346.74 555.924 346.251 564.872C343.559 567.427 320.219 584.115 316.408 586.249C309.459 592.404 296.542 599.03 289.415 605.605L289.547 631.313C289.571 635.437 290.535 648.371 287.468 651.101C279.635 658.074 269.866 663.594 261.262 669.679C257.62 672.26 254.159 674.004 251.107 677.257C249.732 689.034 250.872 711.728 250.521 724.68C250.683 729.046 250.77 732.793 251.016 737.207L250.475 737.634C248.562 738.986 240.697 744.683 239.048 745.229C237.381 746.768 232.709 750.197 230.752 751.555C222.604 756.9 209.184 766.189 201.821 772.202C201.797 758.823 201.485 744.023 201.883 730.748C200.905 709.085 202.423 686.243 201.779 664.491C201.729 662.808 202.199 655.915 203.215 654.942C212.325 646.222 225.518 640.329 234.448 631.485L234.957 630.977C236.032 615.774 234.058 599.756 235.81 584.672C236.188 581.422 250.244 572.57 253.423 570.344L281.764 550.49C285.954 547.57 294.32 542.461 297.047 538.454C297.575 532.468 297.27 523.564 297.229 517.302L297.07 482.322L297.091 440.998C297.087 433.933 297.305 423.208 296.673 416.379C293.323 412.645 283.723 406.412 279.079 403.185C270.496 397.137 261.871 391.149 253.204 385.221C236.37 373.66 238.367 376.798 238.458 356.592L238.504 332.757C238.458 307.997 237.925 281.474 238.567 256.877C241.579 253.065 261.269 238.988 266.131 235.852Z"/><defs><linearGradient id="gradient_6" gradientUnits="userSpaceOnUse" x1="285.12973" y1="698.67761" x2="236.93375" y2="653.2392"><stop offset="0" stop-color="#4C1FA6"/><stop offset="1" stop-color="#7441FA"/></linearGradient></defs><path fill="url(#gradient_6)" d="M264.751 622.401C271.011 618.882 283.534 607.48 289.415 605.605L289.547 631.313C289.571 635.437 290.535 648.371 287.468 651.101C279.635 658.074 269.866 663.594 261.262 669.679C257.62 672.26 254.159 674.004 251.107 677.257C249.732 689.034 250.872 711.728 250.521 724.68C250.683 729.046 250.77 732.793 251.016 737.207L250.475 737.634C248.562 738.986 240.697 744.683 239.048 745.229C237.381 746.768 232.709 750.197 230.752 751.555C230.307 746.127 230.299 732.988 230.542 727.256L230.438 720.729C231.04 703.071 229.882 684.468 230.641 666.716C238.112 658.227 254.729 650.637 263.865 641.576C263.824 638.038 263.155 624.273 264.751 622.401Z"/><path fill="#5327B1" d="M230.542 727.256C231.527 730.674 230.929 741.564 231.721 742.654C231.783 742.663 231.846 742.672 231.908 742.68C232.291 742.298 232.117 742.264 232.333 741.775C233.209 739.794 235.825 742.946 237.378 741.171C238.082 740.367 240.128 740.578 240.889 741.116C240.762 742.859 236.611 744.656 236.803 745.7C237.281 745.789 238.46 745.364 239.048 745.229C237.381 746.768 232.709 750.197 230.752 751.555C230.307 746.127 230.299 732.988 230.542 727.256Z"/><path fill="#5327B1" d="M250.475 737.634C249.139 734.891 245.963 737.731 248.901 733.169C250.561 730.593 249.224 728.397 250.521 724.68C250.683 729.046 250.77 732.793 251.016 737.207L250.475 737.634Z"/><path fill="#5327B1" d="M242.045 739.176C242.259 739.136 242.473 739.095 242.687 739.055C242.61 739.267 242.235 739.531 242.128 739.627C241.868 739.604 241.608 739.581 241.348 739.557C241.581 739.43 241.813 739.303 242.045 739.176Z"/><path fill="#04C7FD" d="M324.795 448.368C331.918 453.879 339.404 458.15 346.301 463.341C345.469 487.134 346.394 512.002 346.148 535.846C346.054 544.975 346.74 555.924 346.251 564.872C343.559 567.427 320.219 584.115 316.408 586.249L315.744 586.111L315.657 585.888L317.067 585.004C314.75 580.393 312.831 575.135 310.381 570.606C308.995 568.046 308.855 567.078 306.558 566.434C311.542 563.267 320.848 557.202 324.604 553.106C325.412 545.195 324.829 524.31 324.819 515.758L324.795 448.368Z"/><path fill="#0F3D6F" d="M201.883 730.748C203.02 729.829 211.621 718 213.377 715.651L229.975 693.86C230.007 701.105 229.694 713.87 230.438 720.729L230.542 727.256C230.299 732.988 230.307 746.127 230.752 751.555C222.604 756.9 209.184 766.189 201.821 772.202C201.797 758.823 201.485 744.023 201.883 730.748Z"/><path fill="#0581C2" d="M264.085 596.772C266.802 594.06 273.118 589.699 276.478 587.265C286.349 580.1 296.379 573.154 306.558 566.434C308.855 567.078 308.995 568.046 310.381 570.606C312.831 575.135 314.75 580.393 317.067 585.004L315.657 585.888L315.744 586.111L316.408 586.249C309.459 592.404 296.542 599.03 289.415 605.605C283.534 607.48 271.011 618.882 264.751 622.401C263.824 617.98 264.069 601.923 264.085 596.772Z"/><defs><linearGradient id="gradient_7" gradientUnits="userSpaceOnUse" x1="484.35947" y1="728.14478" x2="267.93851" y2="585.20325"><stop offset="0" stop-color="#090201"/><stop offset="1" stop-color="#0F3564"/></linearGradient></defs><path fill="url(#gradient_7)" d="M346.301 463.341C369.35 478.395 392.301 494.1 414.94 509.77C423.486 515.685 447.091 529.134 452.997 535.693C452.677 582.426 452.677 629.161 452.996 675.895C452.768 680.547 453.415 699.244 452.15 700.734C445.21 708.904 417.112 725.837 409.382 731.835C409.408 737.979 409.269 745.227 409.563 751.283C409.105 769.433 410.039 787.934 409.755 805.982C409.826 821.626 409.73 837.271 409.466 852.913C405.58 850.106 401.492 847.668 397.676 844.779C393.932 842.238 382.68 835.954 382.379 831.634C381.903 824.778 382.024 817.254 382.017 810.342L381.995 774.247L382 742.018C382.004 735.887 381.859 729.411 382.289 723.313C382.477 720.637 382.562 720.193 384.339 718.304C387.068 715.404 391.78 713.058 394.696 710.789C402.287 704.883 420.094 694.359 425.485 687.807L425.936 687.248L425.863 595.111L425.901 569.975C425.905 566.36 426.402 550.278 423.945 548.417C407.706 536.119 390.488 524.702 373.73 513.036C374.085 518.717 374.945 577.35 372.363 579.608C357.66 592.468 333.241 605.915 318.205 619.214C313.382 623.48 319.565 656.955 314.878 663.695C307.258 672.618 285.527 681.738 277.613 691.293C277.2 699.344 277.589 709.81 277.376 718.264C269.452 724.36 259.263 731.763 251.016 737.207C250.77 732.793 250.683 729.046 250.521 724.68C250.872 711.728 249.732 689.034 251.107 677.257C254.159 674.004 257.62 672.26 261.262 669.679C269.866 663.594 279.635 658.074 287.468 651.101C290.535 648.371 289.571 635.437 289.547 631.313L289.415 605.605C296.542 599.03 309.459 592.404 316.408 586.249C320.219 584.115 343.559 567.427 346.251 564.872C346.74 555.924 346.054 544.975 346.148 535.846C346.394 512.002 345.469 487.134 346.301 463.341Z"/><path fill="#030304" d="M397.676 844.779C400.704 844.683 402.045 847.23 403.369 847.31L403.413 847.166L403.274 847.295C403.58 846.471 402.639 845.57 402.567 844.923C402.324 843.307 408.347 843.996 408.499 843.677C409.295 842.007 408.753 835.731 408.845 834.248C409.013 831.537 408.687 830.413 408.806 827.996C408.943 825.222 408.89 823.25 408.946 820.503C409.084 818.792 408.586 815.132 408.843 813.75C409.216 811.748 408.263 806.506 409.755 805.982C409.826 821.626 409.73 837.271 409.466 852.913C405.58 850.106 401.492 847.668 397.676 844.779Z"/><path fill="#030304" d="M384.255 796.689C387.253 799.831 388.91 803.39 386.542 807.262C385.566 807.842 385.487 808.262 384.648 808.726C384.588 808.759 384.435 808.675 384.429 808.608C384.092 804.761 384.254 800.582 384.255 796.689Z"/><path fill="#5327B1" d="M324.929 420.488L344.765 434.677C353.898 441.246 363.752 447.586 373.126 453.875C388.667 464.361 404.294 474.716 420.007 484.941C432.891 493.087 445.593 501.518 458.104 510.227C462.752 513.412 471.893 519.277 475.506 523.188C475.601 549.019 476.118 576.546 475.544 602.275C475.002 607.697 475.244 615.11 475.252 620.755L475.284 651.288C467.205 659.081 460.775 669.406 453.912 678.572C452.819 677.485 453.458 677.447 452.996 675.895C452.677 629.161 452.677 582.426 452.997 535.693C447.091 529.134 423.486 515.685 414.94 509.77C392.301 494.1 369.35 478.395 346.301 463.341C339.404 458.15 331.918 453.879 324.795 448.368C324.106 444.946 324.206 423.829 324.929 420.488Z"/><defs><linearGradient id="gradient_8" gradientUnits="userSpaceOnUse" x1="386.47528" y1="817.67676" x2="518.25793" y2="704.41205"><stop offset="0" stop-color="#1F0E4A"/><stop offset="1" stop-color="#401784"/></linearGradient></defs><path fill="url(#gradient_8)" d="M475.544 602.275C476.327 611.725 475.829 626.674 475.853 636.743L475.708 712.92C467.975 719.922 455.249 727.2 446.473 733.354C441.578 736.787 436.884 739.159 432.543 743.64L432.6 825.949C432.629 838.192 432.071 858.373 433.034 869.913C430.273 868.109 427.101 865.68 424.39 863.706L409.466 852.913C409.73 837.271 409.826 821.626 409.755 805.982C410.039 787.934 409.105 769.433 409.563 751.283C409.269 745.227 409.408 737.979 409.382 731.835C417.112 725.837 445.21 708.904 452.15 700.734C453.415 699.244 452.768 680.547 452.996 675.895C453.458 677.447 452.819 677.485 453.912 678.572C460.775 669.406 467.205 659.081 475.284 651.288L475.252 620.755C475.244 615.11 475.002 607.697 475.544 602.275Z"/><path fill="#301165" d="M410.073 732.541C412.766 730.191 414.492 729.026 417.482 727.032C418.779 732.664 418.406 737.604 418.742 743.263C419.379 753.979 419.381 764.844 420.101 775.532C421.861 801.655 425.455 827.617 427.104 853.755C427.281 856.534 426.974 859.62 425.501 862.028C425.148 862.599 424.778 863.159 424.39 863.706L409.466 852.913C409.73 837.271 409.826 821.626 409.755 805.982C410.039 787.934 409.105 769.433 409.563 751.283C410.43 747.29 409.876 737.285 410.073 732.541Z"/><path fill="#0F3D6F" d="M382.593 228.16C382.469 218.212 382.041 207.58 382.658 197.69C383.005 192.138 391.214 187.611 395.412 184.627C400.549 180.976 406.026 177.262 411.292 173.627L411.209 220.032C411.21 224.128 411.427 238.813 410.964 242.162C408.875 247.775 411.482 248.626 411.422 252.692C408.111 254.867 410.156 251.502 407.737 252.756C403.059 255.179 394.164 253.715 393.369 260.83C392.992 264.203 395.749 269.14 395.155 271.537C392.496 271.354 385.417 265.171 383.565 262.956C383.962 258.172 384.322 230.538 382.593 228.16Z"/><path fill="#0F3D6F" d="M339.451 382.239L340.44 382.287C343.363 382.392 345.344 385.726 347.139 388C347.375 393.284 347.41 400.016 346.982 405.249C346.362 412.837 347.155 421.339 346.053 428.683C345.567 415.487 346.579 400.722 345.777 387.768C343.285 385.248 341.77 384.37 339.451 382.239Z"/><defs><linearGradient id="gradient_9" gradientUnits="userSpaceOnUse" x1="658.4353" y1="511.11337" x2="336.80157" y2="277.55664"><stop offset="0" stop-color="#05AEFE"/><stop offset="1" stop-color="#03FAFE" stop-opacity="0.98823529"/></linearGradient></defs><path fill="url(#gradient_9)" d="M592.07 158.073C597.412 161.665 602.78 165.45 608.013 169.2C609.573 170.317 614.756 173.677 615.907 174.735C615.281 188.574 616.002 202.752 615.771 216.622C615.738 218.625 615.687 221.241 615.908 223.18C615.842 231.205 615.989 241.109 615.537 249.033C611.306 254.738 596.18 263.956 589.621 268.578C574.128 279.58 558.542 290.451 542.866 301.191C538.639 304.1 526.758 311.854 523.748 315.209C523.352 330.227 523.59 346.119 523.576 361.187L523.469 439.616L523.535 699.548C519.045 700.328 518.284 699.177 513.501 699.288C512.99 699.299 507.985 699.454 507.675 700.009C507.914 700.621 510.148 701.304 510.795 701.578C511.015 702.5 506.145 702.161 505.419 701.902C503.797 701.324 503.144 702.13 502.132 702.242C501.25 701.773 502.861 700.406 502.846 700.034C503.247 700.426 501.239 699.054 501.624 699.257C500.64 699.611 500.761 719.694 500.762 722.087C499.956 682.282 500.786 640.598 500.745 600.59L500.555 315.244C494.057 308.363 478.369 298.74 470.241 292.816C458.957 284.592 447.318 276.535 435.78 268.733C429.148 264.248 415.255 255.827 411.16 249.831L410.964 242.162C411.427 238.813 411.21 224.128 411.209 220.032L411.292 173.627L432.968 158.255C433.066 184.011 432.019 214.519 433.025 239.742C436.318 243.345 456.219 257.005 461.97 260.857C478.221 271.74 495.252 284.915 511.683 295.001C513.811 294.371 515.641 293.599 517.486 292.377C533.009 282.105 548.667 271.068 563.893 260.376C569.912 256.15 587.411 244.498 591.483 240.207C592.117 220.818 591.36 200.623 591.659 181.16C591.709 177.921 591.38 160.285 592.07 158.073Z"/><defs><linearGradient id="gradient_10" gradientUnits="userSpaceOnUse" x1="510.1926" y1="293.47159" x2="513.54022" y2="139.34969"><stop offset="0" stop-color="#003152"/><stop offset="1" stop-color="#2D4A97"/></linearGradient></defs><path fill="url(#gradient_10)" d="M432.968 158.255C440.517 152.738 452.488 143.653 460.3 138.778C460.01 157.485 459.899 176.194 459.965 194.903C459.951 204.304 459.075 214.535 460.318 223.791C460.437 224.676 460.886 225.351 461.482 225.987C463.964 228.64 509.181 260.09 512.954 261.857C518.342 258.994 562.135 227.956 565.238 224.316L565.491 224.025C565.664 195.751 565.623 167.476 565.367 139.203C569.02 141.385 590.212 155.925 592.07 158.073C591.38 160.285 591.709 177.921 591.659 181.16C591.36 200.623 592.117 220.818 591.483 240.207C587.411 244.498 569.912 256.15 563.893 260.376C548.667 271.068 533.009 282.105 517.486 292.377C515.641 293.599 513.811 294.371 511.683 295.001C495.252 284.915 478.221 271.74 461.97 260.857C456.219 257.005 436.318 243.345 433.025 239.742C432.019 214.519 433.066 184.011 432.968 158.255Z"/><path fill="#1DF0FC" fill-opacity="0.98823529" d="M290.4 219.015C291.015 228.53 290.679 241.067 290.745 250.793C290.935 271.037 290.983 291.282 290.886 311.526C290.84 323.295 290.456 336.562 290.758 348.209C295.117 351.825 331.827 377.933 335.03 379.223C336.236 380.139 338.144 381.731 339.451 382.239C341.77 384.37 343.285 385.248 345.777 387.768C346.579 400.722 345.567 415.487 346.053 428.683C346.03 430.373 346.21 432.77 345.475 434.185L344.765 434.677L324.929 420.488C324.945 414.511 324.928 408.534 324.877 402.557C321.557 398.733 316.018 395.051 311.834 392.071C302.993 385.826 294.114 379.636 285.198 373.5C279.955 369.863 270.403 363.672 266.426 359.273C266.182 339.625 266.457 319.328 266.423 299.619L266.131 235.852C273.456 230.434 282.807 224.281 290.4 219.015Z"/><path fill="#0F3D6F" d="M290.4 219.015C297.366 213.238 309.883 205.106 317.768 199.302L317.807 285.245L317.722 314.993C317.707 320.762 317.481 328.196 318.076 333.809C322.752 338.892 344.617 351.713 346.559 354.673C348.396 359.583 356.504 357.348 346.979 368.104C345.058 370.274 342.637 373.614 341.045 376.066C337.956 377.065 337.297 375.469 335.699 376.803C336.418 378.857 338.495 378.566 339.244 380.672C336.602 380.756 338.796 379.581 335.03 379.223C331.827 377.933 295.117 351.825 290.758 348.209C290.456 336.562 290.84 323.295 290.886 311.526C290.983 291.282 290.935 271.037 290.745 250.793C290.679 241.067 291.015 228.53 290.4 219.015Z"/><path fill="#1DF0FC" d="M500.762 722.087C500.761 719.694 500.64 699.611 501.624 699.257C501.239 699.054 503.247 700.426 502.846 700.034C502.861 700.406 501.25 701.773 502.132 702.242C503.144 702.13 503.797 701.324 505.419 701.902C506.145 702.161 511.015 702.5 510.795 701.578C510.148 701.304 507.914 700.621 507.675 700.009C507.985 699.454 512.99 699.299 513.501 699.288C518.284 699.177 519.045 700.328 523.535 699.548L523.629 727.455C520.605 725.645 522.249 726.151 519.711 726.307C513.645 726.678 506.404 726.566 500.448 728.148C500.693 725.795 500.772 724.49 500.762 722.087Z"/></svg>